<!-- Default album cover SVG -->
<svg width="200" height="200" viewBox="0 0 200 200" fill="none" xmlns="http://www.w3.org/2000/svg">
  <rect width="200" height="200" fill="#6366F1"/>
  <path d="M100 60C94.4772 60 90 64.4772 90 70V130C90 135.523 94.4772 140 100 140C105.523 140 110 135.523 110 130V70C110 64.4772 105.523 60 100 60Z" fill="white"/>
  <path d="M70 80C64.4772 80 60 84.4772 60 90V110C60 115.523 64.4772 120 70 120C75.5228 120 80 115.523 80 110V90C80 84.4772 75.5228 80 70 80Z" fill="white"/>
  <path d="M130 80C124.477 80 120 84.4772 120 90V110C120 115.523 124.477 120 130 120C135.523 120 140 115.523 140 110V90C140 84.4772 135.523 80 130 80Z" fill="white"/>
</svg>
